<svg width="18" height="18" viewBox="0 0 18 18" fill="none" xmlns="http://www.w3.org/2000/svg">
<path d="M17.1984 6.0375C17.1984 6.03667 17.1975 6.03667 17.1984 6.0375L17.1959 6.03417L17.195 6.03333V6.0325C17.1434 5.95648 17.0767 5.89182 16.9992 5.8425L9.36252 0.775833C9.25078 0.704447 9.12095 0.666515 8.98836 0.666515C8.85576 0.666515 8.72593 0.704447 8.61419 0.775833L0.975857 5.845C0.879409 5.90493 0.800198 5.98891 0.745997 6.08869C0.691796 6.18848 0.664466 6.30064 0.666691 6.41417V11.5475C0.664595 11.6801 0.702649 11.8102 0.775857 11.9208V11.9217L0.777524 11.9233L0.785857 11.9358V11.9375H0.786691L0.787524 11.9383L0.788357 11.9392C0.840857 12.0125 0.905024 12.0725 0.976691 12.1183L8.61419 17.1867C8.72397 17.2623 8.8542 17.3027 8.98752 17.3025C9.12144 17.3032 9.25235 17.2628 9.36252 17.1867L17 12.1183C17.0963 12.0578 17.1753 11.9734 17.2294 11.8734C17.2836 11.7735 17.3111 11.6612 17.3092 11.5475V6.41417C17.3113 6.28028 17.2726 6.14893 17.1984 6.0375V6.0375ZM9.65086 2.56083L15.445 6.405L12.7925 8.165L9.65002 6.05167V2.56083H9.65086ZM8.32419 2.56083V6.05167L5.18169 8.165L2.53086 6.40583L8.32419 2.56083V2.56083ZM1.99502 7.6425L3.99086 8.9675L1.99502 10.31V7.6425V7.6425ZM8.32419 15.4017L2.52419 11.5542L5.18669 9.7625L8.32419 11.8442V15.4017ZM8.98669 10.6908L6.38002 8.95917L8.98669 7.205L11.5959 8.95917L8.98669 10.6908ZM9.65086 15.4017V11.8433L12.7892 9.76167L15.45 11.5533L9.65086 15.4017V15.4017ZM15.9817 10.31L13.985 8.9675L15.9817 7.6425V10.31Z" fill="white"/>
</svg>
