<svg width="28" height="26" viewBox="0 0 28 26" fill="none" xmlns="http://www.w3.org/2000/svg">
<path d="M26.5 21.75V9.25C26.5 8.58696 26.2366 7.95107 25.7678 7.48223C25.2989 7.01339 24.663 6.75 24 6.75H15.545C15.0806 6.74998 14.6254 6.62063 14.2305 6.37645C13.8355 6.13226 13.5163 5.78289 13.3087 5.3675L12.1913 3.1325C11.9836 2.71692 11.6642 2.36742 11.269 2.12322C10.8738 1.87902 10.4183 1.74978 9.95375 1.75H4C3.33696 1.75 2.70107 2.01339 2.23223 2.48223C1.76339 2.95107 1.5 3.58696 1.5 4.25V21.75C1.5 22.413 1.76339 23.0489 2.23223 23.5178C2.70107 23.9866 3.33696 24.25 4 24.25H24C24.663 24.25 25.2989 23.9866 25.7678 23.5178C26.2366 23.0489 26.5 22.413 26.5 21.75Z" stroke="#683385" stroke-width="2" stroke-linecap="round" stroke-linejoin="round"/>
</svg>
