<svg width="18" height="20" viewBox="0 0 18 20" fill="none" xmlns="http://www.w3.org/2000/svg">
<path d="M16.5292 4.38083C17.2875 5.29083 17.6658 6.3525 17.6658 7.56583C17.6658 11.9633 15.1642 13.2525 12.8133 13.6317C13.1167 14.1625 13.1925 14.7692 13.1925 15.3758V18.4842C13.1925 18.8633 12.965 19.0908 12.6617 19.0908C12.5817 19.092 12.5023 19.077 12.4282 19.0469C12.3541 19.0169 12.2867 18.9722 12.2302 18.9156C12.1736 18.8591 12.129 18.7918 12.0989 18.7176C12.0688 18.6435 12.0539 18.5641 12.055 18.4842V15.3758C12.0949 15.058 12.061 14.7353 11.9557 14.4328C11.8505 14.1302 11.6769 13.8561 11.4483 13.6317L11.8275 12.6458C14.1783 12.3425 16.605 11.5842 16.605 7.49C16.605 6.50417 16.2258 5.59417 15.5433 4.83583L15.3917 4.23C15.68 3.50337 15.7066 2.69904 15.4667 1.955C15.0883 2.03 14.33 2.1825 13.0417 3.0925L12.5858 3.1675C10.7948 2.71272 8.91852 2.71272 7.1275 3.1675L6.67166 3.0925C5.30833 2.25833 4.55 2.03083 4.17 2.03083C3.9425 2.78917 3.9425 3.6225 4.245 4.30583L4.09416 4.91167C3.33583 5.67 2.95666 6.65583 2.95666 7.56583C2.95666 11.5842 5.23166 12.4183 7.73333 12.7217L8.03666 13.7075C7.58166 14.1625 7.35416 14.7692 7.43 15.3758V18.56C7.43112 18.64 7.41619 18.7194 7.3861 18.7935C7.35601 18.8676 7.31137 18.9349 7.25481 18.9915C7.19825 19.048 7.13092 19.0927 7.05681 19.1228C6.9827 19.1529 6.90331 19.1678 6.82333 19.1667C6.74335 19.1678 6.66396 19.1529 6.58985 19.1228C6.51574 19.0927 6.44841 19.048 6.39185 18.9915C6.33529 18.9349 6.29065 18.8676 6.26056 18.7935C6.23047 18.7194 6.21554 18.64 6.21666 18.56V16.8167C3.715 17.3475 2.72916 16.0583 1.97083 15.0733C1.59166 14.6183 1.28833 14.2392 0.909164 14.1633C0.834164 14.0875 0.60583 13.7842 0.681664 13.4808C0.757497 13.1775 1.06083 12.95 1.365 13.1017C2.12333 13.2533 2.5775 13.86 3.03166 14.3908C3.715 15.3008 4.3975 16.1342 6.44416 15.68V15.3767C6.36916 14.77 6.52 14.1633 6.82333 13.6325C4.54833 13.1775 1.895 11.8883 1.895 7.56667C1.895 6.35333 2.27416 5.29167 3.0325 4.38167C2.805 3.32083 2.88083 2.18333 3.26 1.27333L3.63916 0.97C3.79083 0.894167 4.8525 0.666667 7.05 2.03083C8.86695 1.57589 10.768 1.57589 12.585 2.03083C14.7092 0.59 15.8467 0.816667 15.9983 0.893333L16.3775 1.19667C16.7567 2.25833 16.8325 3.32 16.5292 4.38083V4.38083Z" fill="white"/>
</svg>
