<svg width="20" height="14" viewBox="0 0 20 14" fill="none" xmlns="http://www.w3.org/2000/svg">
<path d="M13.3334 1.66667C14.6594 1.66667 15.9312 2.19345 16.8689 3.13113C17.8066 4.06881 18.3334 5.34058 18.3334 6.66667V12.5H15V6.66667C15 6.22464 14.8244 5.80072 14.5119 5.48815C14.1993 5.17559 13.7754 5 13.3334 5C12.8913 5 12.4674 5.17559 12.1548 5.48815C11.8423 5.80072 11.6667 6.22464 11.6667 6.66667V12.5H8.33335V6.66667C8.33335 5.34058 8.86014 4.06881 9.79782 3.13113C10.7355 2.19345 12.0073 1.66667 13.3334 1.66667V1.66667ZM1.66669 2.5H5.00002V12.5H1.66669V2.5Z" stroke="white" stroke-width="2" stroke-linecap="round" stroke-linejoin="round"/>
</svg>
