<svg width="25" height="24" viewBox="0 0 25 24" fill="none" xmlns="http://www.w3.org/2000/svg">
<path d="M3.32746 23.7188H0.78127V10.9909C0.778935 10.1214 0.980011 9.26344 1.36843 8.48555C1.89579 7.32179 2.74706 6.33448 3.82051 5.64158C4.89397 4.94868 6.14423 4.57949 7.42189 4.57812H14.0897V0.28125H16.1581L24.1517 8.2749L16.1297 16.2969H14.0897V12H9.75319C8.84611 12.0022 7.96449 12.3001 7.242 12.8486C6.51952 13.3971 5.99558 14.1662 5.74963 15.0393L3.32746 23.7188ZM7.42189 6.14062C6.44255 6.14167 5.48432 6.4253 4.66218 6.95746C3.84005 7.48962 3.18893 8.24772 2.78698 9.14077L2.77272 9.17075C2.48887 9.73538 2.34192 10.3589 2.34377 10.9909V21.4308L4.24465 14.6193C4.58303 13.418 5.30391 12.3597 6.29799 11.6051C7.29207 10.8504 8.50512 10.4405 9.75319 10.4375H15.6522V14.5647L21.942 8.2749L15.6522 1.98506V6.14062H7.42189Z" fill="#683385"/>
</svg>
